<svg width="120" height="32" viewBox="0 0 120 32" fill="none" xmlns="http://www.w3.org/2000/svg">
<g clip-path="url(#clip0_55_162)">
<path fill-rule="evenodd" clip-rule="evenodd" d="M2.95698 15.4294L5.2536 16.1705C5.98734 16.4053 6.51564 16.541 6.83115 16.5704C7.15033 16.5997 7.4585 16.5374 7.75566 16.3759C8.04916 16.2145 8.25094 15.965 8.361 15.6275C8.51876 15.1322 8.44171 14.7103 8.13354 14.3618C7.81803 14.0133 7.19802 13.6904 6.26617 13.3896L3.86683 12.6155L2.96065 15.4294H2.95698ZM12.4846 3.05116V5.4615C12.492 6.23193 12.5287 6.7749 12.5947 7.08674C12.6644 7.39858 12.8222 7.67374 13.068 7.90487C13.3101 8.136 13.6109 8.24973 13.9668 8.24973C14.4841 8.24973 14.862 8.04428 15.1004 7.64072C15.3352 7.23349 15.4526 6.54377 15.449 5.56423L15.4416 3.04382L12.4846 3.05116ZM27.2035 8.29008L24.9106 9.04217C24.1805 9.28064 23.6742 9.48241 23.3991 9.64384C23.1239 9.80893 22.9111 10.0401 22.768 10.3446C22.625 10.6454 22.6066 10.9682 22.7167 11.3058C22.8781 11.801 23.1899 12.0945 23.6449 12.1936C24.1035 12.2927 24.7968 12.1899 25.725 11.8854L28.1207 11.1003L27.1999 8.29008H27.2035ZM26.7706 23.8968L25.3472 21.9487C24.8922 21.3287 24.5437 20.9105 24.3052 20.6977C24.0668 20.4886 23.7769 20.3565 23.4431 20.3161C23.1092 20.2721 22.8011 20.3565 22.5149 20.5656C22.0967 20.8738 21.9096 21.259 21.9573 21.7249C22.0086 22.1908 22.3168 22.8182 22.8965 23.607L24.3823 25.6431L26.7706 23.8968ZM11.7766 28.3139L13.1927 26.3622C13.644 25.7385 13.9338 25.2799 14.0622 24.9864C14.1906 24.6929 14.2273 24.3811 14.1612 24.0472C14.1025 23.717 13.9264 23.4492 13.6366 23.2401C13.2147 22.9356 12.7928 22.8806 12.3636 23.0677C11.9343 23.2584 11.4317 23.75 10.8594 24.5425L9.3809 26.5823L11.7766 28.3176V28.3139ZM19.9835 3.03281L17.3567 3.04015L17.364 6.35667C17.364 7.27018 17.265 8.0296 17.0595 8.63127C16.8541 9.23661 16.4762 9.75023 15.9222 10.1795C15.3682 10.605 14.7189 10.8215 13.9741 10.8252C11.9343 10.8325 7.27873 8.94678 5.2536 8.29375L4.45015 10.7921L7.60525 11.8084C8.47473 12.0909 9.16812 12.4211 9.6744 12.7989C10.1844 13.1805 10.5586 13.6978 10.797 14.3581C11.0318 15.0148 11.0392 15.7009 10.808 16.4126C10.1807 18.357 6.95222 22.1872 5.70118 23.9151L7.82904 25.456L9.77713 22.7705C10.3128 22.0294 10.8411 21.4754 11.362 21.1086C11.883 20.7417 12.492 20.5436 13.1927 20.5252C13.8898 20.5032 14.5428 20.7124 15.1481 21.1489C16.8064 22.3486 19.4589 26.5933 20.7209 28.3176L22.8378 26.7657L20.8823 24.0876C20.343 23.3502 19.9762 22.6751 19.789 22.0698C19.5983 21.4608 19.5983 20.8224 19.7964 20.1474C19.9908 19.476 20.3907 18.9184 20.9924 18.4781C22.6323 17.2784 27.5227 16.0641 29.5368 15.4037L28.7187 12.909L25.5673 13.9399C24.6978 14.2224 23.942 14.3618 23.3073 14.3545C22.669 14.3471 22.06 14.1454 21.484 13.7491C20.908 13.3566 20.5008 12.8063 20.2697 12.0945C19.6313 10.1501 19.9872 5.157 19.9835 3.02181V3.03281ZM21.8912 0.538086L21.9059 8.13966C22.3168 7.91587 22.8378 7.70309 23.4614 7.49764L28.9718 5.6963L32.4975 16.4603L25.2738 18.8193C25.6113 19.1421 25.9745 19.5677 26.3597 20.0923L29.7826 24.7736L20.6439 31.4617L16.1534 25.3166C15.9479 25.7422 15.6544 26.2191 15.2692 26.7547L11.8646 31.4507L2.69284 24.8103L7.15033 18.6615C6.6844 18.5992 6.14143 18.4671 5.52142 18.269L0 16.486L3.4706 5.70731L10.709 8.04061C10.6246 7.57835 10.5806 7.02071 10.5806 6.36768L10.5696 0.567436L21.8949 0.538086H21.8912Z" fill="#676767"/>
<path fill-rule="evenodd" clip-rule="evenodd" d="M51.6703 17.1208C52.1105 16.93 53.1451 16.7392 54.0916 16.7392C56.0691 16.7392 57.2284 17.8765 57.2284 19.3513C57.2284 20.8262 56.2158 21.8351 54.807 21.8351C53.6917 21.8351 52.448 21.2444 51.817 20.3199L50.4266 22.1506C51.3328 23.541 53.1634 24.2564 54.7447 24.2564C57.5439 24.2564 59.8222 22.4257 59.8222 19.245C59.8222 16.3393 57.8007 14.549 55.1886 14.549C54.8914 14.549 54.5796 14.5894 54.3448 14.6334L54.7667 11.7241H59.6094V9.30273H52.6388L51.6703 17.1171V17.1208ZM42.6783 17.2895C44.4906 17.2895 45.2684 18.2397 45.2684 19.5018C45.2684 20.7638 44.4686 21.692 42.5499 21.692C42.0032 21.692 41.4969 21.6516 40.9063 21.6076V17.4179C41.5593 17.3336 42.1903 17.2895 42.6746 17.2895H42.6783ZM38.3198 24.029C39.182 24.029 40.4477 24.1133 42.1536 24.1133C45.7783 24.1133 47.8401 22.3634 47.8401 19.311C47.8401 16.5925 45.9654 14.8682 42.891 14.8682C42.3664 14.8682 41.4823 14.9122 40.9099 14.9929V11.7278H46.934V9.3064H38.3198V24.029Z" fill="#676767"/>
<path fill-rule="evenodd" clip-rule="evenodd" d="M117.575 24.029H119.996V14.5527H111.107V24.029H113.528V16.8273H117.571V24.029H117.575ZM104.716 24.029H107.141V14.5527H98.2518V24.029H100.677V16.8273H104.72V24.029H104.716ZM95.5223 14.5527H92.7634L91.0574 19.7145C90.8887 20.1988 90.8043 20.6611 90.7199 21.105C90.5732 20.6391 90.4448 20.1988 90.2577 19.7366L88.0454 14.5563H85.1398L89.5202 24.0326L89.3111 24.5389C88.9112 25.5295 88.4673 26.0137 87.8583 26.0137C87.4804 26.0137 87.1209 25.823 86.8678 25.6762L86.09 27.5106C86.6366 27.9105 87.2677 28.248 88.1335 28.248C89.5239 28.248 90.4081 27.4262 91.7985 24.0363L95.5259 14.56L95.5223 14.5527ZM78.3233 16.5961C79.9229 16.5961 80.8107 17.6931 80.8107 19.2083C80.8107 20.7234 79.8422 22.0112 78.1582 22.0112C77.3585 22.0112 76.8082 21.8828 76.1588 21.4609V17.627C76.7495 16.974 77.5052 16.5925 78.327 16.5925L78.3233 16.5961ZM73.7301 28.2443H76.1551V23.8015C76.7018 24.117 77.5236 24.2637 78.3674 24.2637C81.4014 24.2637 83.3788 22.0295 83.3788 19.1459C83.3788 16.2623 81.6949 14.3215 79.0828 14.3215C77.8611 14.3215 76.7458 14.8278 76.1551 15.4588V14.5527H73.7301V28.2443ZM65.127 24.0326H67.7171V11.7277H73.4439V9.3064H65.1233V24.029L65.127 24.0326Z" fill="#676767"/>
</g>
<defs>
<clipPath id="clip0_55_162">
<rect width="120" height="30.9236" fill="white" transform="translate(0 0.538086)"/>
</clipPath>
</defs>
</svg>
