<svg width="24" height="24" viewBox="0 0 24 24" fill="none" xmlns="http://www.w3.org/2000/svg">
<path fill-rule="evenodd" clip-rule="evenodd" d="M2.57691 11.5926L4.20516 12.1218C4.72536 12.2894 5.09991 12.3863 5.3236 12.4073C5.54989 12.4283 5.76838 12.3837 5.97906 12.2685C6.18715 12.1532 6.3302 11.9751 6.40824 11.7341C6.52008 11.3804 6.46546 11.0792 6.24697 10.8303C6.02328 10.5815 5.58371 10.351 4.92304 10.1362L3.22196 9.58345L2.57951 11.5926H2.57691ZM9.3318 2.75434V4.47537C9.337 5.02547 9.36302 5.41316 9.40983 5.63582C9.45925 5.85848 9.5711 6.05494 9.74537 6.21997C9.91704 6.385 10.1303 6.46621 10.3826 6.46621C10.7494 6.46621 11.0173 6.31952 11.1863 6.03137C11.3528 5.7406 11.436 5.24813 11.4334 4.54871L11.4282 2.7491L9.3318 2.75434ZM19.7672 6.49502L18.1415 7.03203C17.6239 7.2023 17.265 7.34637 17.0699 7.46163C16.8748 7.57951 16.724 7.74454 16.6225 7.96196C16.5211 8.17676 16.5081 8.40728 16.5861 8.64828C16.7005 9.00191 16.9216 9.21147 17.2442 9.2822C17.5693 9.35293 18.0609 9.27958 18.719 9.06216L20.4174 8.50158L19.7646 6.49502H19.7672ZM19.4602 17.6385L18.451 16.2475C18.1285 15.8048 17.8814 15.5062 17.7123 15.3543C17.5433 15.205 17.3378 15.1107 17.1011 15.0818C16.8644 15.0504 16.6459 15.1107 16.443 15.26C16.1465 15.48 16.0139 15.7551 16.0477 16.0877C16.0841 16.4204 16.3026 16.8684 16.7136 17.4316L17.767 18.8854L19.4602 17.6385ZM8.8298 20.7924L9.8338 19.3988C10.1537 18.9535 10.3592 18.6261 10.4502 18.4165C10.5413 18.2069 10.5673 17.9843 10.5205 17.7459C10.4789 17.5101 10.354 17.3189 10.1485 17.1696C9.84941 16.9522 9.55029 16.9129 9.24597 17.0465C8.94165 17.1827 8.5853 17.5337 8.17954 18.0995L7.13132 19.556L8.8298 20.795V20.7924ZM14.6483 2.74124L12.786 2.74648L12.7912 5.11453C12.7912 5.76679 12.721 6.30904 12.5753 6.73864C12.4296 7.17086 12.1617 7.5376 11.769 7.84408C11.3762 8.14795 10.9158 8.3025 10.3878 8.30512C8.94165 8.31036 5.64093 6.96392 4.20516 6.49764L3.63553 8.28154L5.87242 9.00715C6.48887 9.20885 6.98046 9.44461 7.33941 9.71442C7.70095 9.98685 7.96626 10.3562 8.13533 10.8277C8.30179 11.2966 8.30699 11.7865 8.14313 12.2947C7.69835 13.683 5.40944 16.4178 4.52248 17.6516L6.03108 18.7518L7.41224 16.8343C7.79199 16.3052 8.16654 15.9096 8.53588 15.6477C8.90523 15.3857 9.337 15.2442 9.8338 15.2311C10.328 15.2154 10.791 15.3647 11.2202 15.6765C12.3958 16.5331 14.2764 19.5638 15.1711 20.795L16.6719 19.687L15.2856 17.7747C14.9032 17.2482 14.6431 16.7662 14.5105 16.334C14.3752 15.8991 14.3752 15.4433 14.5157 14.9613C14.6535 14.482 14.937 14.0838 15.3636 13.7695C16.5263 12.9129 19.9935 12.0458 21.4214 11.5743L20.8414 9.79301L18.6071 10.5291C17.9907 10.7308 17.4548 10.8303 17.0049 10.8251C16.5523 10.8199 16.1205 10.6758 15.7122 10.3929C15.3038 10.1126 15.0151 9.71966 14.8512 9.21147C14.3986 7.82312 14.6509 4.25795 14.6483 2.73338V2.74124ZM16.0009 0.959961L16.0113 6.38762C16.3026 6.22783 16.6719 6.0759 17.1141 5.92921L21.0209 4.64302L23.5205 12.3287L18.399 14.0131C18.6383 14.2436 18.8958 14.5475 19.1689 14.922L21.5957 18.2646L15.1165 23.04L11.9328 18.6523C11.7872 18.9561 11.5791 19.2967 11.306 19.6791L8.89223 23.0321L2.38963 18.2908L5.54989 13.9004C5.21956 13.8559 4.83461 13.7616 4.39503 13.6201L0.480469 12.347L2.94105 4.65088L8.0729 6.3169C8.01308 5.98684 7.98186 5.58867 7.98186 5.12239L7.97406 0.980917L16.0035 0.959961H16.0009Z" fill="#676767"/>
</svg>
